<svg width="1200" height="630" viewBox="0 0 1200 630" fill="none" xmlns="http://www.w3.org/2000/svg">
  <defs>
    <linearGradient id="bg" x1="0" y1="0" x2="1200" y2="630" gradientUnits="userSpaceOnUse">
      <stop stop-color="#14573c"/><stop offset="1" stop-color="#0c3b29"/>
    </linearGradient>
    <linearGradient id="leaf" x1="60" y1="40" x2="150" y2="160" gradientUnits="userSpaceOnUse">
      <stop stop-color="#bfe7cf"/><stop offset="1" stop-color="#5fbd8a"/>
    </linearGradient>
    <radialGradient id="glow" cx="0.85" cy="0.1" r="0.6">
      <stop stop-color="#b06a3c" stop-opacity="0.45"/><stop offset="1" stop-color="#b06a3c" stop-opacity="0"/>
    </radialGradient>
  </defs>

  <rect width="1200" height="630" fill="url(#bg)"/>
  <rect width="1200" height="630" fill="url(#glow)"/>

  <!-- mark -->
  <g transform="translate(96,86)">
    <rect width="116" height="116" rx="28" fill="rgba(255,255,255,0.08)" stroke="rgba(255,255,255,0.16)"/>
    <g transform="translate(26,18) scale(0.66)">
      <path d="M48 20c17 10 18 38 0 56-18-18-17-46 0-56z" fill="url(#leaf)"/>
      <path d="M48 26c-3 14-4 28-6 42" stroke="#0f4630" stroke-width="2.4" stroke-linecap="round" opacity=".55"/>
      <path d="M42 76c1.6-4 3.4-7 6-9" stroke="#b06a3c" stroke-width="3.4" stroke-linecap="round"/>
      <path d="M48 8l2.4 6.2L57 17l-6.6 2.4L48 26l-2.4-6.6L39 17l6.6-2.4L48 8z" fill="#e7b894"/>
    </g>
  </g>
  <text x="232" y="138" font-family="Georgia, serif" font-size="40" font-weight="700" fill="#f6f1e7">Nova-Habitat</text>
  <text x="233" y="172" font-family="Arial, sans-serif" font-size="17" font-weight="700" letter-spacing="5" fill="#9fe0bd">TECHNOLOGIES</text>

  <!-- headline -->
  <text x="96" y="320" font-family="Georgia, serif" font-size="74" font-weight="700" fill="#f6f1e7">POS &amp; analytics software</text>
  <text x="96" y="404" font-family="Georgia, serif" font-size="74" font-weight="700" fill="#e7b894">for the businesses Kenya runs on.</text>

  <text x="96" y="470" font-family="Arial, sans-serif" font-size="28" fill="#c5e0cf">Schools · Hospitals · Hotels · Restaurants · Supermarkets</text>

  <!-- chips -->
  <g font-family="Arial, sans-serif" font-size="22" font-weight="700" fill="#cdeadb">
    <rect x="96" y="516" width="190" height="52" rx="26" fill="rgba(255,255,255,0.06)" stroke="rgba(159,224,189,0.4)"/>
    <text x="124" y="549">M-Pesa ready</text>
    <rect x="306" y="516" width="210" height="52" rx="26" fill="rgba(255,255,255,0.06)" stroke="rgba(159,224,189,0.4)"/>
    <text x="334" y="549">KRA eTIMS</text>
    <rect x="536" y="516" width="250" height="52" rx="26" fill="rgba(255,255,255,0.06)" stroke="rgba(159,224,189,0.4)"/>
    <text x="564" y="549">Multi-branch cloud</text>
  </g>

  <text x="1104" y="600" text-anchor="end" font-family="Arial, sans-serif" font-size="20" fill="#9fb8a8">nova-habitat.tech</text>
</svg>
